<?xml version="1.0" encoding="UTF-8"?>
<svg id="Layer_2" data-name="Layer 2" xmlns="http://www.w3.org/2000/svg" viewBox="0 0 1998.41 1317.63">
  <defs>
    <style>
      .cls-1 {
        fill: #18206f;
      }

      .cls-2 {
        fill: #91dce5;
      }
    </style>
  </defs>
  <g id="Layer_1-2" data-name="Layer 1">
    <g>
      <polygon class="cls-2" points="1998.41 1.46 1933.22 179.81 1666.42 179.04 1624.9 292.61 1559.75 470.97 1408.64 884.38 1343.45 1062.69 1161.89 1062 1034.6 1061.47 1099.79 883.12 1227.08 883.65 1378.15 470.24 1443.34 291.88 1484.86 178.31 1550.05 0 1731.61 .73 1998.41 1.46"/>
      <polygon class="cls-1" points="1316.05 291.4 1250.86 469.71 1121.18 469.18 244.23 465.69 395.75 880.32 970.06 882.63 904.87 1060.94 461.14 1059.16 282.26 1058.43 216.91 879.59 65.35 464.96 0 286.12 178.84 286.81 1186.37 290.87 1316.05 291.4"/>
      <circle class="cls-1" cx="764.76" cy="1228.34" r="89.3"/>
      <circle class="cls-1" cx="444.1" cy="1228.34" r="89.3"/>
    </g>
  </g>
</svg>